<svg width="273" height="277" viewBox="0 0 273 277" fill="none" xmlns="http://www.w3.org/2000/svg">
<path fill-rule="evenodd" clip-rule="evenodd" d="M16.1034 137.855C14.7324 151.337 9.25077 158.931 26.8821 173.317C37.0014 181.583 50.4231 185.87 64.0811 187.259C56.2891 198.947 44.7079 223.176 55.3321 237.692C59.5416 243.45 63.196 245.034 70.4306 247.516C79.985 250.796 89.022 251.654 97.8003 257.917C104.577 262.75 101.337 262.071 111.5 263.105C128.213 264.805 156.46 237.948 158.162 221.209C160.652 223.267 167.997 232.775 174.841 238.396C180.216 242.799 189.931 249.88 198.62 250.764C221.79 253.12 224.41 229.11 239.513 215.949C248.055 208.506 249.475 209.328 250.759 196.701C252.295 181.595 239.458 158.835 227.576 149.212C224.67 146.861 215.371 140.905 212.029 139.753L215.197 137.736C216.545 136.969 217.709 136.406 219.235 135.609C235.43 127.176 259.296 110.228 258.477 90.3961C257.756 72.9341 241.226 72.3012 227.136 49.493C217.483 33.8832 196.571 37.6818 182.262 43.0972L167.986 50.3723C164.955 52.3656 166.334 52.5059 162.529 53.119C162.744 41.335 150.5 12.6727 133.95 10.9897C120.238 9.59526 106.735 22.9838 92.8273 25.4603C82.7887 27.2445 79.2053 27.4213 73.618 34.9429C61.2768 51.5561 65.9941 71.9556 67.9212 86.9544C54.2462 85.5637 31.8229 82.5984 21.5823 93.8459C17.4607 98.3724 15.6392 102.677 14.9951 107.058L14.7573 109.397C14.2503 117.75 17.2517 126.563 16.102 137.868" fill="#F3439D"/>
<path fill-rule="evenodd" clip-rule="evenodd" d="M165.471 61.3584C167.934 80.2526 167.245 103.161 161.606 120.069C164.801 123.499 167.711 127.403 169.495 130.569C180.982 129.819 192.5 131.427 203.342 135.294C204.901 134.649 206.451 133.98 207.991 133.286C228.968 123.768 247.995 109.782 253.099 96.3603C260.432 77.0905 234.661 74.4768 222.675 50.4848C215.562 36.2571 180.273 45.4994 165.477 61.3696" fill="#D28ED2"/>
<path fill-rule="evenodd" clip-rule="evenodd" d="M125.997 110.886C132.345 109.526 147.118 108.373 155.001 114.088C162.81 88.2983 158.649 35.8356 141.019 19.6275C125.835 5.67788 113.849 28.6391 87.127 30.8733C71.3403 32.1956 66.7419 68.0727 76.0323 88.0405L88.9822 91.9236C102.568 96.6334 115.986 103.265 125.998 110.872" fill="#3A276A"/>
<path fill-rule="evenodd" clip-rule="evenodd" d="M67.6426 180.995C78.4006 166.245 93.3435 151.333 107.95 142.727C104.65 131.645 106.934 120.336 116.933 114.339C94.198 99.1531 49.2447 85.1676 28.1984 95.2698C9.73443 104.132 26.3454 124.33 18.6763 149.485C14.0286 164.725 46.0254 182.316 67.6426 180.995Z" fill="#A778E3"/>
<path fill-rule="evenodd" clip-rule="evenodd" d="M153.217 214.937C144.013 201.401 135.909 185.102 132.671 170.627C123.447 166.803 115.677 159.041 111.056 150.274C87.0645 165.014 54.9836 203.877 56.622 228.093C58.0173 248.669 82.4861 240.254 103.447 257.063C116.353 267.411 144.051 242.159 149.831 226.173C151.166 222.494 152.291 218.742 153.199 214.936" fill="#3A276A"/>
<path fill-rule="evenodd" clip-rule="evenodd" d="M172.439 138.496C176.242 152.16 174.011 162.528 158.713 169.911C153.415 172.544 147.473 173.601 141.592 172.959C149.341 199.894 176.777 240.691 200.242 245.977C219.962 250.421 220.483 223.83 241.37 209.398C255.001 199.967 238.657 166.199 225.027 156.108C209.175 144.373 191.24 137.785 172.43 138.513" fill="#A778E3"/>
<path fill-rule="evenodd" clip-rule="evenodd" d="M164.201 134.525C167.914 145.695 169.661 155.638 154.915 162.759C119.996 179.613 85.791 106.539 146.858 116.514C152.368 117.428 162.528 129.513 164.191 134.524" fill="#FB6292"/>
<path fill-rule="evenodd" clip-rule="evenodd" d="M151.078 137.674C152.777 142.788 153.572 147.342 146.822 150.601C130.839 158.318 115.179 124.861 143.141 129.427C145.665 129.84 150.333 135.383 151.078 137.678" fill="#FFCAE9"/>
</svg>
