<svg width="430" height="932" viewBox="0 0 430 932" fill="none" xmlns="http://www.w3.org/2000/svg">
<g style="mix-blend-mode:overlay">
<path d="M415.722 375.245C410.749 382.437 397.976 379.656 392.223 386.24C388.399 390.615 391.233 397.634 391.079 403.443C390.581 422.23 400.932 443.713 390.289 459.202C383.326 469.335 364.142 464.35 353.842 457.637C342.668 450.354 336.577 436.193 334.723 422.985C333.028 410.901 353.009 396.315 344.073 388.006C331.845 376.637 307.902 395.734 294.584 385.663C286.641 379.656 304.534 367.548 303.877 357.611C302.845 342 274.305 315.474 289.808 313.373C314.658 310.005 331.798 362.234 354.117 350.802C376.136 339.524 340.285 293.009 359.642 277.604C374.275 265.959 366.522 318.618 382.638 328.105C394.948 335.35 411.777 305.859 422.889 314.833C433.362 323.291 416.167 340.535 414.581 353.902C413.732 361.055 419.818 369.32 415.722 375.245Z" fill="white" fill-opacity="0.26"/>
</g>
<g style="mix-blend-mode:overlay">
<path d="M460.071 42.256C469.872 49.3025 486.169 58.4931 482.668 70.0453C478.84 82.6784 456.448 76.8313 446.848 85.892C440.186 92.18 446.734 107.784 438.478 111.754C429.611 116.018 420.34 102.844 410.514 103.364C402.11 103.81 395.974 117.453 388.122 114.422C379.769 111.197 380.987 98.3043 376.844 90.3663C374.178 85.256 372.294 79.5439 367.946 75.7592C360.609 69.3726 337.843 69.1834 343.131 61.0192C350.914 49.0037 381.076 64.4731 384.292 50.5233C388.093 34.0347 357.457 26.5185 354.943 9.78507C353.284 -1.26217 363.71 -21.3355 374.111 -17.2587C391.545 -10.4249 385.822 29.4642 404.547 29.228C424.779 28.9728 421.521 -21.4458 441.477 -18.1084C459.022 -15.1745 427.131 16.8806 432.367 33.8805C435.239 43.2022 452.152 36.5622 460.071 42.256Z" fill="white" fill-opacity="0.26"/>
</g>
<g style="mix-blend-mode:overlay">
<path d="M107.749 591.076C118.398 599.225 127.388 618.302 119.445 629.105C106.239 647.067 77.6674 644.078 59.392 656.846C55.54 659.538 59.6833 666.086 59.7892 670.784C59.987 679.56 66.6565 690.78 60.293 696.828C54.6418 702.198 43.6855 686.732 37.723 691.754C22.7585 704.361 25.2989 733.226 7.48276 741.316C-4.03977 746.548 -22.4282 731.941 -22.9325 719.296C-23.7366 699.137 -1.13458 685.455 4.48191 666.077C5.85954 661.324 -1.82357 658.545 -4.04209 654.121C-6.95118 648.321 -8.5261 642.166 -10.5948 636.016C-14.9725 623 -25.2828 610.827 -23.1678 597.258C-21.2724 585.1 -12.0897 566.001 -0.136583 568.925C17.631 573.271 16.2887 606.217 33.8846 611.213C46.5732 614.816 52.2214 590.873 64.9471 587.403C78.9152 583.595 96.251 582.278 107.749 591.076Z" fill="white" fill-opacity="0.26"/>
</g>
<g style="mix-blend-mode:overlay">
<path d="M405.97 952.289C397.426 960.816 385.711 975.405 374.881 970.075C363.036 964.247 372.441 943.101 365.059 932.158C359.936 924.563 343.476 928.491 340.899 919.7C338.131 910.258 352.636 903.249 353.717 893.469C354.642 885.104 342.176 876.835 346.441 869.579C350.979 861.86 363.504 865.155 372.009 862.356C377.484 860.554 383.426 859.623 387.867 855.947C395.36 849.745 399.242 827.311 406.44 833.854C417.032 843.484 396.872 870.735 410.114 876.173C425.767 882.601 438.157 853.591 455.077 853.828C466.247 853.984 484.361 867.53 478.65 877.131C469.076 893.225 430.646 881.102 427.839 899.616C424.806 919.622 475.085 924.592 468.552 943.742C462.809 960.577 436.356 923.906 418.731 926.313C409.067 927.633 412.874 945.399 405.97 952.289Z" fill="white" fill-opacity="0.26"/>
</g>
<g style="mix-blend-mode:overlay">
<path d="M74.605 274.038C64.8359 283.223 44.5522 288.996 35.182 279.405C19.6026 263.458 27.1897 235.751 17.5578 215.645C15.5277 211.407 8.39369 214.433 3.74106 213.774C-4.95127 212.545 -17.1049 217.304 -22.0392 210.044C-26.4213 203.595 -9.38097 195.295 -13.3693 188.597C-23.3791 171.784 -52.2741 169.605 -57.3643 150.711C-60.6563 138.492 -43.2577 122.719 -30.6988 124.274C-10.6763 126.754 -0.845399 151.277 17.3637 159.965C21.83 162.096 25.8202 154.966 30.5452 153.495C36.741 151.566 43.0692 151.011 49.4739 149.968C63.0275 147.762 76.7137 139.565 89.7584 143.854C101.448 147.698 118.802 159.86 113.977 171.18C106.804 188.006 74.5127 181.333 66.7266 197.884C61.112 209.82 83.8205 219.28 85.1778 232.4C86.6676 246.801 85.153 264.121 74.605 274.038Z" fill="white" fill-opacity="0.26"/>
</g>
</svg>
