<svg width="334" height="372" viewBox="0 0 334 372" fill="none" xmlns="http://www.w3.org/2000/svg">
<path d="M95.5491 83.4571C93.0018 84.4284 90.4007 85.2518 87.7586 85.9231C84.2687 86.7745 82.2982 87.1691 78.9298 85.8606C78.8115 85.8146 78.6986 85.7692 78.5921 85.7245C72.2074 83.0073 66.7496 78.4909 62.883 72.725C59.0164 66.9592 56.9078 60.1925 56.8138 53.2488C56.797 53.0107 56.797 52.7602 56.797 52.5159C56.7937 51.3391 56.8499 50.1628 56.9654 48.9917C57.113 47.3964 57.3679 45.8129 57.7285 44.2519L57.6948 44.2458C54.9676 41.4545 53.9183 37.631 54.2662 33.7891C54.5046 31.1845 55.3304 28.668 56.6815 26.4293C58.0326 24.1905 59.8738 22.2879 62.0662 20.8648C65.5021 18.7025 69.3763 17.3338 73.407 16.8581C74.4893 16.7331 75.5779 16.6699 76.6673 16.6687H86.9027C89.0166 16.1733 91.1642 15.8344 93.3279 15.6548H93.3447C113.944 13.9446 130.19 27.614 128.675 44.2458C128.663 44.2641 128.647 44.2824 128.635 44.3008C128.198 45.0154 127.811 45.6934 127.468 46.3408C127.137 46.9455 126.857 47.5257 126.615 48.0755C124.735 52.3266 133.669 118.282 130.465 119.284C128.641 119.852 121.29 70.7724 122.609 80.1052C124.27 91.814 105.039 79.9457 95.5491 83.4571Z" fill="#2F2E41"/>
<path d="M126.582 202.686L155.137 263.577L45.2909 252.442L68.2207 193.987L126.582 202.686Z" fill="#FFB6B6"/>
<path d="M183.904 324.77C164.803 331.135 144.673 333.833 124.571 332.725L115.83 318.536C115.83 318.536 115.464 323.82 114.918 331.899C105.349 330.789 95.9054 328.785 86.7097 325.913C69.2709 320.455 52.9239 311.997 36.3536 304.198C32.9974 284.172 31.738 253.292 50.2935 235.315L150.168 253.633C150.168 253.633 166.193 265.63 161.906 269.927C157.619 274.218 156.955 273.554 159.772 276.373C162.588 279.192 168.674 282.961 168.736 285.426C168.761 286.389 175.591 303.844 183.904 324.77Z" fill="#2F2E41"/>
<path d="M109.141 85.0214L85.0116 86.7065L69.4158 101.791L63.9538 102.767C59.0442 103.643 54.6265 106.292 51.5384 110.212C48.4503 114.131 46.9065 119.049 47.1998 124.032C48.3233 143.085 50.8389 171.553 56.0965 180.789C64.249 195.11 70.9828 190.617 64.249 195.11C57.5152 199.604 52.9944 196.073 56.0965 203.174C59.1987 210.275 51.9037 219.384 51.9037 219.384L48.9998 222.291L52.0798 223.554L150.221 236.337C150.221 236.337 141.735 198.146 147.042 188.765C152.35 179.383 165.217 151.025 153.733 139.929L142.504 100.377L123.19 94.675L109.141 85.0214Z" fill="#F178B6"/>
<path d="M255.208 241.766C253.593 241.715 252.008 241.313 250.564 240.588C249.12 239.864 247.85 238.834 246.842 237.57C245.834 236.306 245.113 234.838 244.728 233.267C244.343 231.697 244.303 230.061 244.611 228.474L198.575 197.267L204.068 182.399L258.475 219.864C261.106 220.583 263.382 222.242 264.872 224.528C266.363 226.814 266.963 229.568 266.56 232.268C266.157 234.967 264.779 237.425 262.687 239.176C260.595 240.926 257.933 241.848 255.208 241.766V241.766Z" fill="#FFB6B6"/>
<path d="M125.178 98.5089L118.489 101.16L154.174 170.921L228.048 221.324L238.697 203.309L182.463 154.691L159.95 111.473C156.781 105.391 151.474 100.7 145.052 98.3055C138.63 95.9112 131.55 95.9837 125.178 98.5089Z" fill="#F178B6"/>
<path d="M95.8208 78.8862C109.202 78.8862 120.05 68.0281 120.05 54.6341C120.05 41.24 109.202 30.3819 95.8208 30.3819C82.4393 30.3819 71.5914 41.24 71.5914 54.6341C71.5914 68.0281 82.4393 78.8862 95.8208 78.8862Z" fill="#FFB6B6"/>
<path d="M116.891 44.3785C116.487 44.5919 116.088 44.7885 115.684 44.9851C115.263 45.1873 114.842 45.3895 114.416 45.5805C106.307 49.2595 99.7026 49.6695 95.696 44.3785C95.5863 41.5949 94.9603 38.856 93.8498 36.3016C94.046 39.1562 93.2944 41.9957 91.7118 44.3785H83.6425C75.3318 49.8998 71.0671 54.9717 76.8357 73.097C77.2117 74.2878 79.7874 116.593 80.5225 119.845C67.9415 115.015 57.0889 63.7283 56.8139 50.2143C56.797 49.9953 56.797 49.765 56.797 49.5403C56.7938 48.4577 56.85 47.3758 56.9654 46.2994C57.1135 44.8299 57.3686 43.3732 57.7286 41.9408L57.6949 41.9352C56.4149 40.7103 55.4383 39.203 54.8431 37.5336C54.2478 35.8642 54.0503 34.0786 54.2663 32.3193C56.3768 29.5533 58.9886 27.2096 61.9652 25.4107C64.672 24.0987 67.4933 23.0383 70.3937 22.2428C70.4667 22.226 70.5284 22.2091 70.6013 22.1923C71.488 21.9507 72.397 21.7317 73.3061 21.5407C75.1795 21.1475 77.0736 20.8606 78.9793 20.6814C79.1196 20.6757 79.2543 20.6645 79.3777 20.6645C80.14 20.665 80.8881 20.8706 81.5438 21.2599C81.5494 21.2599 81.5494 21.2655 81.5606 21.2655C82.1905 21.6423 82.713 22.175 83.0776 22.8125C83.4422 23.4499 83.6368 24.1706 83.6424 24.9051H92.6321C92.9631 24.9051 93.2942 24.9164 93.6253 24.9332C106.145 25.4331 116.206 30.7915 116.851 43.1091C116.879 43.536 116.891 43.9516 116.891 44.3785Z" fill="#2F2E41"/>
<path d="M63.7421 45.3534C72.5579 45.3534 79.7046 38.2001 79.7046 29.376C79.7046 20.5519 72.5579 13.3985 63.7421 13.3985C54.9263 13.3985 47.7797 20.5519 47.7797 29.376C47.7797 38.2001 54.9263 45.3534 63.7421 45.3534Z" fill="#2F2E41"/>
<path d="M85.6569 21.9859C83.8434 30.6213 74.8963 35.786 66.3369 33.6733C62.2265 32.6588 58.6872 30.0514 56.4974 26.4248C54.3076 22.7982 53.6469 18.4495 54.6605 14.3352C56.7712 5.76779 67.1591 8.2377 73.9804 2.64783C83.6301 -5.25984 88.1025 10.3404 85.6569 21.9859Z" fill="#2F2E41"/>
<path d="M50.1906 262.362C63.7951 206.831 90.7511 159.101 135.394 121.705C137.122 118.86 139.906 116.817 143.137 116.025C146.367 115.232 149.78 115.755 152.626 117.478L258.754 181.886C261.596 183.615 263.637 186.402 264.428 189.636C265.22 192.869 264.698 196.285 262.977 199.134C245.937 256.115 220.416 305.559 177.774 339.791C176.046 342.636 173.261 344.678 170.031 345.471C166.8 346.263 163.387 345.741 160.541 344.018L54.4141 279.61C51.5718 277.881 49.5309 275.094 48.7391 271.86C47.9474 268.626 48.4694 265.21 50.1906 262.362Z" fill="#D9D9D9"/>
<path opacity="0.2" d="M69.0539 281.076C66.2116 279.347 64.1708 276.56 63.379 273.326C62.5873 270.093 63.1093 266.677 64.8306 263.828C78.4351 208.297 105.391 160.567 150.034 123.171C151.177 121.309 152.792 119.782 154.715 118.745L152.626 117.478C149.78 115.755 146.368 115.232 143.137 116.025C139.906 116.817 137.122 118.86 135.394 121.705C90.7514 159.101 63.7954 206.83 50.1909 262.361C48.4696 265.21 47.9476 268.626 48.7393 271.86C49.5311 275.093 51.572 277.881 54.4142 279.61L160.541 344.018C162.43 345.155 164.586 345.773 166.79 345.808C168.994 345.843 171.169 345.294 173.093 344.217L69.0539 281.076Z" fill="black"/>
<path d="M193.514 250.051L122.277 207.088C121.145 206.403 120.331 205.297 120.013 204.012C119.696 202.727 119.901 201.368 120.583 200.235C121.266 199.101 122.37 198.285 123.653 197.965C124.936 197.646 126.294 197.849 127.427 198.531L198.665 241.494C199.794 242.18 200.605 243.286 200.921 244.57C201.237 245.853 201.031 247.21 200.35 248.342C199.668 249.475 198.566 250.29 197.285 250.61C196.003 250.931 194.647 250.73 193.514 250.051L193.514 250.051Z" fill="white"/>
<path d="M152.072 193.077L136.4 183.625C135.264 182.945 134.445 181.841 134.122 180.557C133.799 179.272 134 177.911 134.679 176.774C135.359 175.638 136.462 174.818 137.745 174.495C139.029 174.172 140.388 174.372 141.524 175.052L141.551 175.069L157.223 184.521C158.352 185.206 159.164 186.312 159.48 187.596C159.796 188.88 159.591 190.237 158.909 191.369C158.227 192.502 157.125 193.317 155.843 193.637C154.562 193.958 153.205 193.756 152.072 193.077Z" fill="white"/>
<path d="M182.192 268.859L110.954 225.896C109.821 225.213 109.005 224.108 108.686 222.823C108.367 221.538 108.57 220.179 109.251 219.044C109.933 217.91 111.036 217.092 112.319 216.771C113.602 216.45 114.96 216.652 116.095 217.333L116.105 217.339L187.342 260.303C188.471 260.989 189.283 262.095 189.599 263.378C189.914 264.662 189.709 266.018 189.027 267.151C188.346 268.283 187.244 269.099 185.962 269.419C184.681 269.739 183.325 269.538 182.192 268.859L182.192 268.859Z" fill="white"/>
<path d="M202.561 169.042C214.052 169.042 223.368 159.718 223.368 148.216C223.368 136.713 214.052 127.389 202.561 127.389C191.069 127.389 181.754 136.713 181.754 148.216C181.754 159.718 191.069 169.042 202.561 169.042Z" fill="#3F3D56"/>
<path d="M166.695 371.379C191.256 371.379 211.167 351.449 211.167 326.865C211.167 302.281 191.256 282.352 166.695 282.352C142.134 282.352 122.223 302.281 122.223 326.865C122.223 351.449 142.134 371.379 166.695 371.379Z" fill="white"/>
<path d="M166.694 372C157.776 372 149.058 369.353 141.643 364.393C134.227 359.434 128.448 352.385 125.035 344.138C121.622 335.89 120.729 326.815 122.469 318.06C124.208 309.305 128.503 301.263 134.809 294.95C141.116 288.638 149.15 284.34 157.897 282.598C166.644 280.856 175.711 281.75 183.95 285.166C192.19 288.582 199.232 294.367 204.187 301.79C209.142 309.212 211.787 317.938 211.787 326.865C211.773 338.831 207.018 350.304 198.565 358.765C190.111 367.227 178.65 371.986 166.694 372ZM166.694 282.973C158.021 282.973 149.543 285.547 142.332 290.37C135.12 295.193 129.5 302.048 126.181 310.068C122.862 318.089 121.994 326.914 123.686 335.429C125.378 343.943 129.554 351.764 135.687 357.902C141.82 364.041 149.633 368.221 158.14 369.915C166.646 371.608 175.463 370.739 183.476 367.417C191.489 364.095 198.337 358.469 203.156 351.251C207.974 344.032 210.546 335.546 210.546 326.865C210.533 315.228 205.908 304.071 197.688 295.843C189.467 287.614 178.321 282.986 166.694 282.973Z" fill="#3F3D56"/>
<path d="M160.628 350.033C159.86 350.033 159.103 349.853 158.416 349.51C157.729 349.166 157.131 348.667 156.671 348.051L144.538 331.859C144.148 331.339 143.864 330.747 143.702 330.117C143.54 329.487 143.504 328.831 143.596 328.187C143.687 327.543 143.905 326.923 144.236 326.363C144.567 325.803 145.005 325.314 145.525 324.924C146.045 324.533 146.637 324.25 147.267 324.088C147.896 323.927 148.552 323.891 149.195 323.984C149.838 324.076 150.457 324.294 151.016 324.626C151.575 324.958 152.064 325.397 152.453 325.918L160.391 336.51L180.777 305.902C181.138 305.361 181.601 304.896 182.141 304.535C182.681 304.173 183.286 303.921 183.923 303.793C184.56 303.666 185.216 303.665 185.854 303.791C186.491 303.917 187.097 304.168 187.638 304.529C188.178 304.889 188.642 305.353 189.004 305.894C189.365 306.434 189.617 307.04 189.744 307.678C189.872 308.315 189.873 308.972 189.746 309.61C189.62 310.248 189.37 310.854 189.01 311.395L164.744 347.827C164.306 348.486 163.715 349.03 163.023 349.414C162.331 349.797 161.557 350.009 160.766 350.031C160.72 350.032 160.674 350.033 160.628 350.033Z" fill="#F178B6"/>
<path d="M310.317 101.29C312.084 101.139 313.432 100.019 313.327 98.7885C313.222 97.558 311.704 96.6831 309.937 96.8343C308.169 96.9856 306.822 98.1057 306.927 99.3362C307.032 100.567 308.55 101.442 310.317 101.29Z" fill="white"/>
<path d="M330.201 94.539C331.968 94.3878 333.315 93.2676 333.21 92.0371C333.105 90.8066 331.587 89.9317 329.82 90.0829C328.053 90.2342 326.705 91.3543 326.81 92.5848C326.916 93.8153 328.433 94.6902 330.201 94.539Z" fill="#3F3D56"/>
<path d="M300.892 86.1064C302.659 85.9551 304.007 84.835 303.902 83.6045C303.796 82.374 302.279 81.4991 300.511 81.6503C298.744 81.8016 297.397 82.9217 297.502 84.1522C297.607 85.3827 299.125 86.2576 300.892 86.1064Z" fill="#FF6584"/>
<path d="M292.552 81.2137C293.312 81.0416 293.729 80.015 293.482 78.9206C293.235 77.8262 292.418 77.0785 291.657 77.2505C290.897 77.4225 290.48 78.4492 290.727 79.5436C290.974 80.638 291.791 81.3857 292.552 81.2137Z" fill="#D9D9D9"/>
<path d="M286.613 69.3357C287.374 69.1636 287.79 68.137 287.543 67.0426C287.296 65.9482 286.479 65.2005 285.719 65.3725C284.958 65.5445 284.542 66.5711 284.789 67.6655C285.036 68.7599 285.853 69.5077 286.613 69.3357Z" fill="#3F3D56"/>
<path d="M315.104 86.0164C315.864 85.8444 316.281 84.8178 316.034 83.7234C315.787 82.629 314.97 81.8812 314.209 82.0532C313.448 82.2253 313.032 83.2519 313.279 84.3463C313.526 85.4407 314.343 86.1884 315.104 86.0164Z" fill="#D9D9D9"/>
<path d="M306.419 93.2327C307.18 93.0607 307.596 92.0341 307.349 90.9397C307.102 89.8453 306.285 89.0975 305.525 89.2695C304.764 89.4416 304.348 90.4682 304.595 91.5626C304.842 92.657 305.659 93.4047 306.419 93.2327Z" fill="#FF6584"/>
<path d="M322.23 99.1105C322.99 98.9385 323.407 97.9118 323.16 96.8174C322.913 95.723 322.096 94.9753 321.335 95.1473C320.574 95.3193 320.158 96.346 320.405 97.4404C320.652 98.5348 321.469 99.2825 322.23 99.1105Z" fill="#3F3D56"/>
<path d="M228.225 9.28051C228.528 8.08335 227.38 6.75933 225.661 6.32321C223.942 5.88709 222.302 6.50404 221.999 7.70119C221.696 8.89835 222.844 10.2224 224.563 10.6585C226.283 11.0946 227.922 10.4777 228.225 9.28051Z" fill="white"/>
<path d="M207.229 9.14504C207.532 7.94788 206.384 6.62385 204.665 6.18774C202.946 5.75162 201.306 6.36856 201.003 7.56572C200.7 8.76288 201.848 10.0869 203.568 10.5231C205.287 10.9592 206.926 10.3422 207.229 9.14504Z" fill="#3F3D56"/>
<path d="M232.165 26.7162C232.468 25.519 231.32 24.195 229.601 23.7589C227.882 23.3227 226.242 23.9397 225.939 25.1368C225.636 26.334 226.784 27.658 228.503 28.0941C230.223 28.5303 231.862 27.9133 232.165 26.7162Z" fill="#FF6584"/>
<path d="M237.06 33.2907C237.184 32.1757 236.657 31.2015 235.882 31.1148C235.107 31.0282 234.378 31.8618 234.253 32.9769C234.129 34.0919 234.656 35.0661 235.431 35.1528C236.206 35.2395 236.935 34.4058 237.06 33.2907Z" fill="#D9D9D9"/>
<path d="M238.786 46.46C238.91 45.3449 238.383 44.3708 237.608 44.2841C236.833 44.1974 236.104 45.0311 235.98 46.1461C235.855 47.2612 236.382 48.2354 237.157 48.322C237.932 48.4087 238.661 47.575 238.786 46.46Z" fill="#3F3D56"/>
<path d="M217.321 21.3632C217.445 20.2481 216.918 19.274 216.143 19.1873C215.368 19.1006 214.639 19.9343 214.514 21.0493C214.39 22.1644 214.917 23.1386 215.692 23.2252C216.467 23.3119 217.196 22.4782 217.321 21.3632Z" fill="#D9D9D9"/>
<path d="M227.887 17.3901C228.011 16.275 227.484 15.3008 226.709 15.2141C225.934 15.1275 225.205 15.9611 225.08 17.0762C224.956 18.1912 225.483 19.1654 226.258 19.2521C227.033 19.3388 227.762 18.5051 227.887 17.3901Z" fill="#FF6584"/>
<path d="M214.87 6.65577C214.994 5.54072 214.467 4.56653 213.692 4.47986C212.917 4.39318 212.188 5.22684 212.064 6.34189C211.939 7.45695 212.466 8.43113 213.241 8.51781C214.016 8.60448 214.745 7.77082 214.87 6.65577Z" fill="#3F3D56"/>
<path d="M56.8079 262.95C55.2222 262.299 53.7966 261.312 52.6296 260.056C51.4626 258.8 50.5821 257.305 50.049 255.675C49.516 254.045 49.3431 252.318 49.5423 250.614C49.7414 248.911 50.308 247.271 51.2027 245.808L17.0165 197.708L27.9837 184.972L68.1698 242.398C70.518 244.089 72.165 246.583 72.7988 249.408C73.4327 252.233 73.0092 255.192 71.6087 257.725C70.2082 260.259 67.928 262.19 65.2001 263.153C62.4723 264.115 59.4863 264.043 56.808 262.95H56.8079Z" fill="#FFB6B6"/>
<path d="M57.5935 110.522C55.864 109.503 53.8284 109.135 51.8521 109.483C49.8758 109.831 48.0882 110.873 46.8102 112.422L0.620239 177.082L43.4264 237.936L60.1766 219.928L34.1207 178.945L68.7492 145.943C71.5948 139.703 72.0294 132.629 69.9692 126.087C67.9089 119.546 63.4998 114 57.5935 110.522Z" fill="#F178B6"/>
</svg>
